Coordinates
version=1
nRows=6
nColumns=63
inDegrees=yes

Units are S.I. units (second, meters, Newtons, ...)
If the header above contains a line with 'inDegrees', this indicates whether rotational values are in degrees (yes) or radians (no).

endheader
time	pelvis_tilt	pelvis_list	pelvis_rotation	pelvis_tx	pelvis_ty	pelvis_tz	hip_flexion_r	hip_adduction_r	hip_rotation_r	knee_angle_r	knee_angle_r_beta	ankle_angle_r	subtalar_angle_r	mtp_angle_r	hip_flexion_l	hip_adduction_l	hip_rotation_l	knee_angle_l	knee_angle_l_beta	ankle_angle_l	subtalar_angle_l	mtp_angle_l	L5_S1_Flex_Ext	L5_S1_Lat_Bending	L5_S1_axial_rotation	L4_L5_Flex_Ext	L4_L5_Lat_Bending	L4_L5_axial_rotation	L3_L4_Flex_Ext	L3_L4_Lat_Bending	L3_L4_axial_rotation	L2_L3_Flex_Ext	L2_L3_Lat_Bending	L2_L3_axial_rotation	L1_L2_Flex_Ext	L1_L2_Lat_Bending	L1_L2_axial_rotation	L1_T12_Flex_Ext	L1_T12_Lat_Bending	L1_T12_axial_rotation	Abs_r3	Abs_r2	Abs_r1	Abs_t1	Abs_t2	neck_flexion	neck_bending	neck_rotation	arm_flex_r	arm_add_r	arm_rot_r	elbow_flex_r	pro_sup_r	wrist_flex_r	wrist_dev_r	arm_flex_l	arm_add_l	arm_rot_l	elbow_flex_l	pro_sup_l	wrist_flex_l	wrist_dev_l
      5.70000000	     -0.63409087	     -2.62376690	     74.21857414	      0.19427709	      0.86862751	      0.56432423	      6.02833052	      6.51988774	      2.51510341	      8.76827499	      0.15303527	     34.13243574	     -1.54288080	      0.00000000	      3.98112004	     -3.37214934	      4.64191423	      6.63131528	      0.11573829	     35.62350158	      0.73265119	      0.00000000	      0.60395718	      0.85563241	     -0.47770170	      1.12160888	      1.13799110	     -0.50755806	      0.99224125	      2.08038463	     -0.50755806	      0.69026266	      2.08038463	     -0.41798899	      0.56083464	      1.74480560	     -0.38813263	      0.34510113	      1.32537460	     -0.35827628	      4.31400574	      9.67908492	     -2.65683357	      0.00000000	      0.00000000	     28.11981623	     -0.44098069	     -9.33277546	     23.83502350	     -7.17696815	     71.60275328	     37.08920685	     45.17435244	      7.15993969	     11.34246213	     26.26373183	     -5.00025358	     78.96487123	     35.94542369	     64.45212576	      8.53510340	     -5.66345309
      5.72500000	     -0.74682050	     -2.36002157	     74.69793439	      0.19438033	      0.86792354	      0.56426353	      6.01910523	      6.37661568	      2.18849514	      9.29890445	      0.16229650	     34.50147641	     -1.85414235	      0.00000000	      3.84592839	     -3.26038528	      4.90282252	      6.70474842	      0.11701994	     35.58641912	      1.01283098	      0.00000000	      0.56693726	      0.80719065	     -0.45450236	      1.05285918	      1.07356356	     -0.48290875	      0.93142122	      1.96260334	     -0.48290875	      0.64795259	      1.96260334	     -0.39768956	      0.52645794	      1.64602317	     -0.36928317	      0.32394795	      1.25033831	     -0.34087677	      4.04957613	      9.13110205	     -2.52780576	      0.00000000	      0.00000000	     28.06920258	     -0.42580801	     -9.37574035	     23.88536391	     -8.74765918	     71.60897411	     39.09345965	     44.75997847	      8.03488937	     10.52088842	     26.30266736	     -5.27336284	     77.89707644	     36.66705570	     63.85509456	      8.25810628	     -6.66107599
      5.75000000	     -0.62779393	     -2.36992818	     75.14799004	      0.19359944	      0.86701110	      0.56412491	      6.50898199	      6.32518601	      0.07441700	     10.37789851	      0.18112850	     35.22643539	     -0.13687113	      0.00000000	      4.07005305	     -3.42118167	      4.98326913	      6.94142241	      0.12115068	     35.84390845	      1.68105373	      0.00000000	      0.56320355	      0.82398709	     -0.52228852	      1.04592531	      1.09590282	     -0.55493155	      0.92528711	      2.00344220	     -0.55493155	      0.64368533	      2.00344220	     -0.45700246	      0.52299081	      1.68027447	     -0.42435942	      0.32181451	      1.27635600	     -0.39171639	      4.02290661	      9.32110671	     -2.90481207	      0.00000000	      0.00000000	     28.00328715	     -0.63400645	     -8.00207332	     26.07221522	     -9.97944310	     79.35843130	     39.92041417	     38.43738389	      8.64720484	      4.54704180	     25.95363844	     -5.69347936	     76.62335948	     37.42072611	     61.73185537	      6.01261074	     -8.79432295
      5.77500000	     -0.66456583	     -2.30137646	     75.47363889	      0.19315300	      0.86596524	      0.56322714	      6.85561208	      6.21508275	     -0.54561162	     11.35780011	      0.19823101	     35.68647486	     -0.42929374	      0.00000000	      4.15692659	     -3.35216157	      5.49926700	      7.08931251	      0.12373184	     36.13744730	      1.70833583	      0.00000000	      0.56543897	      0.82268067	     -0.53201946	      1.05007671	      1.09416529	     -0.56527068	      0.92895968	      2.00026578	     -0.56527068	      0.64624020	      2.00026578	     -0.46551703	      0.52506663	      1.67761042	     -0.43226581	      0.32309183	      1.27433236	     -0.39901460	      4.03887401	      9.30632829	     -2.95893265	      0.00000000	      0.00000000	     27.98607282	     -0.93230201	     -6.59900368	     27.12174450	    -10.75162626	     84.05663683	     40.72106617	     38.55018519	      8.92239018	     -0.33956706	     25.48831920	     -6.22216437	     75.17770509	     38.13390073	     61.22327908	      3.05929622	    -10.80678196
      5.80000000	     -0.73370011	     -2.24620046	     75.80119051	      0.19284105	      0.86477843	      0.56220290	      7.25318763	      6.07382466	     -1.08408113	     12.37666369	      0.21601353	     36.24754116	     -0.83016968	      0.00000000	      4.26622369	     -3.22382091	      6.46759014	      7.23346805	      0.12624783	     36.45614114	      1.23212360	      0.00000000	      0.57154608	      0.81959629	     -0.61728076	      1.06141823	      1.09006307	     -0.65586081	      0.93899306	      1.99276643	     -0.65586081	      0.65322002	      1.99276643	     -0.54012066	      0.53073769	      1.67132076	     -0.50154062	      0.32658143	      1.26955466	     -0.46296057	      4.08249652	      9.27143719	     -3.43313039	      0.00000000	      0.00000000	     27.98433160	     -0.76415824	     -4.52170481	     28.10861825	    -11.38763851	     89.29278112	     41.67229414	     36.72082902	      8.62803932	     -3.12590097	     24.41574361	     -7.09012089	     72.91734022	     38.91440578	     59.98719152	      0.11111110	    -11.79152672
      5.82500000	     -0.98441431	     -2.36399021	     76.01833231	      0.19286034	      0.86316097	      0.56181275	      8.11651030	      5.80870775	     -1.34834179	     13.69526290	      0.23902743	     36.97162168	     -1.35101388	      0.00000000	      4.64651723	     -2.99077872	      7.10345648	      7.37956113	      0.12879764	     36.84497635	      1.12010479	      0.00000000	      0.59891268	      0.77829150	     -0.69383253	      1.11224073	      1.03512770	     -0.73719706	      0.98395363	      1.89233796	     -0.73719706	      0.68449730	      1.89233796	     -0.60710346	      0.55615031	      1.58709204	     -0.56373893	      0.34221870	      1.20557354	     -0.52037440	      4.27797335	      8.80418915	     -3.85888837	      0.00000000	      0.00000000	     27.98280195	     -1.05252134	     -4.58296512	     27.78244816	    -12.57913192	     90.22621491	     42.96476863	     36.01074405	      8.92200483	     -1.86174359	     23.14571818	     -8.13478647	     70.63917125	     39.21584617	     58.48618600	     -0.82974813	    -12.48413434
